<svg xmlns="http://www.w3.org/2000/svg" viewBox="0 0 1040 680" role="img" aria-label="A staircase of four orange steps, read five diagrams, learn the grammar, find your point, defend it, climbing to the map at the top. One person stands at the foot; a faint crowd stands below, not climbing.">
<defs><filter id="rough" x="-5%" y="-5%" width="110%" height="110%"><feTurbulence type="fractalNoise" baseFrequency="0.035" numOctaves="2" seed="4"/><feDisplacementMap in="SourceGraphic" scale="3.2"/></filter></defs>
<rect width="1040" height="680" fill="#f4e9d9"/>
<g filter="url(#rough)"><rect x="830" y="40" width="120" height="30" fill="none" stroke="#6a6158" stroke-width="3"/><rect x="766" y="100" width="26" height="24" fill="none" stroke="#6a6158" stroke-width="2.6"/><path d="M779 100 L844.0 72" stroke="#a0978b" stroke-width="2" fill="none"/><rect x="796" y="100" width="26" height="24" fill="none" stroke="#6a6158" stroke-width="2.6"/><path d="M809 100 L857.1 72" stroke="#a0978b" stroke-width="2" fill="none"/><rect x="826" y="100" width="26" height="24" fill="none" stroke="#6a6158" stroke-width="2.6"/><path d="M839 100 L870.3 72" stroke="#a0978b" stroke-width="2" fill="none"/><rect x="856" y="100" width="26" height="24" fill="none" stroke="#6a6158" stroke-width="2.6"/><path d="M869 100 L883.4 72" stroke="#a0978b" stroke-width="2" fill="none"/><rect x="886" y="100" width="26" height="24" fill="none" stroke="#6a6158" stroke-width="2.6"/><path d="M899 100 L896.6 72" stroke="#a0978b" stroke-width="2" fill="none"/><rect x="916" y="100" width="26" height="24" fill="none" stroke="#6a6158" stroke-width="2.6"/><path d="M929 100 L909.7 72" stroke="#a0978b" stroke-width="2" fill="none"/><rect x="946" y="100" width="26" height="24" fill="none" stroke="#6a6158" stroke-width="2.6"/><path d="M959 100 L922.9 72" stroke="#a0978b" stroke-width="2" fill="none"/><rect x="976" y="100" width="26" height="24" fill="none" stroke="#6a6158" stroke-width="2.6"/><path d="M989 100 L936.0 72" stroke="#a0978b" stroke-width="2" fill="none"/><path d="M30 510 L170 510" stroke="#a0978b" stroke-width="2.2" fill="none"/><path d="M170 510 L170 420 L330 420 L330 330 L490 330 L490 240 L650 240 L650 150 L1000 150" stroke="#c25c34" stroke-width="4" fill="none" stroke-linejoin="round"/><g stroke="#3b342c" stroke-width="3.4" fill="none" opacity="1" stroke-linecap="round"><circle cx="80" cy="423.4" r="12.3"/><path d="M80 435.7 L80 472.8 M59.1 449.0 L100.9 449.0 M61.0 506.0 L80 472.8 L99.0 506.0"/></g><g stroke="#3b342c" stroke-width="1.6" fill="none" opacity="0.22" stroke-linecap="round"><circle cx="60" cy="557.6" r="3.6"/><path d="M60 561.3 L60 572.2 M53.8 565.2 L66.2 565.2 M54.4 582.0 L60 572.2 L65.6 582.0"/></g><g stroke="#3b342c" stroke-width="1.6" fill="none" opacity="0.22" stroke-linecap="round"><circle cx="108" cy="557.6" r="3.6"/><path d="M108 561.3 L108 572.2 M101.8 565.2 L114.2 565.2 M102.4 582.0 L108 572.2 L113.6 582.0"/></g><g stroke="#3b342c" stroke-width="1.6" fill="none" opacity="0.22" stroke-linecap="round"><circle cx="156" cy="557.6" r="3.6"/><path d="M156 561.3 L156 572.2 M149.8 565.2 L162.2 565.2 M150.4 582.0 L156 572.2 L161.6 582.0"/></g><g stroke="#3b342c" stroke-width="1.6" fill="none" opacity="0.22" stroke-linecap="round"><circle cx="204" cy="557.6" r="3.6"/><path d="M204 561.3 L204 572.2 M197.8 565.2 L210.2 565.2 M198.4 582.0 L204 572.2 L209.6 582.0"/></g><g stroke="#3b342c" stroke-width="1.6" fill="none" opacity="0.22" stroke-linecap="round"><circle cx="252" cy="557.6" r="3.6"/><path d="M252 561.3 L252 572.2 M245.8 565.2 L258.2 565.2 M246.4 582.0 L252 572.2 L257.6 582.0"/></g><g stroke="#3b342c" stroke-width="1.6" fill="none" opacity="0.22" stroke-linecap="round"><circle cx="300" cy="557.6" r="3.6"/><path d="M300 561.3 L300 572.2 M293.8 565.2 L306.2 565.2 M294.4 582.0 L300 572.2 L305.6 582.0"/></g><g stroke="#3b342c" stroke-width="1.6" fill="none" opacity="0.22" stroke-linecap="round"><circle cx="348" cy="557.6" r="3.6"/><path d="M348 561.3 L348 572.2 M341.8 565.2 L354.2 565.2 M342.4 582.0 L348 572.2 L353.6 582.0"/></g><g stroke="#3b342c" stroke-width="1.6" fill="none" opacity="0.22" stroke-linecap="round"><circle cx="396" cy="557.6" r="3.6"/><path d="M396 561.3 L396 572.2 M389.8 565.2 L402.2 565.2 M390.4 582.0 L396 572.2 L401.6 582.0"/></g><g stroke="#3b342c" stroke-width="1.6" fill="none" opacity="0.22" stroke-linecap="round"><circle cx="444" cy="557.6" r="3.6"/><path d="M444 561.3 L444 572.2 M437.8 565.2 L450.2 565.2 M438.4 582.0 L444 572.2 L449.6 582.0"/></g><g stroke="#3b342c" stroke-width="1.6" fill="none" opacity="0.22" stroke-linecap="round"><circle cx="492" cy="557.6" r="3.6"/><path d="M492 561.3 L492 572.2 M485.8 565.2 L498.2 565.2 M486.4 582.0 L492 572.2 L497.6 582.0"/></g><g stroke="#3b342c" stroke-width="1.6" fill="none" opacity="0.22" stroke-linecap="round"><circle cx="540" cy="557.6" r="3.6"/><path d="M540 561.3 L540 572.2 M533.8 565.2 L546.2 565.2 M534.4 582.0 L540 572.2 L545.6 582.0"/></g><g stroke="#3b342c" stroke-width="1.6" fill="none" opacity="0.22" stroke-linecap="round"><circle cx="588" cy="557.6" r="3.6"/><path d="M588 561.3 L588 572.2 M581.8 565.2 L594.2 565.2 M582.4 582.0 L588 572.2 L593.6 582.0"/></g><g stroke="#3b342c" stroke-width="1.6" fill="none" opacity="0.22" stroke-linecap="round"><circle cx="636" cy="557.6" r="3.6"/><path d="M636 561.3 L636 572.2 M629.8 565.2 L642.2 565.2 M630.4 582.0 L636 572.2 L641.6 582.0"/></g><g stroke="#3b342c" stroke-width="1.6" fill="none" opacity="0.22" stroke-linecap="round"><circle cx="684" cy="557.6" r="3.6"/><path d="M684 561.3 L684 572.2 M677.8 565.2 L690.2 565.2 M678.4 582.0 L684 572.2 L689.6 582.0"/></g><g stroke="#3b342c" stroke-width="1.6" fill="none" opacity="0.22" stroke-linecap="round"><circle cx="60" cy="589.6" r="3.6"/><path d="M60 593.3 L60 604.2 M53.8 597.2 L66.2 597.2 M54.4 614.0 L60 604.2 L65.6 614.0"/></g><g stroke="#3b342c" stroke-width="1.6" fill="none" opacity="0.22" stroke-linecap="round"><circle cx="108" cy="589.6" r="3.6"/><path d="M108 593.3 L108 604.2 M101.8 597.2 L114.2 597.2 M102.4 614.0 L108 604.2 L113.6 614.0"/></g><g stroke="#3b342c" stroke-width="1.6" fill="none" opacity="0.22" stroke-linecap="round"><circle cx="156" cy="589.6" r="3.6"/><path d="M156 593.3 L156 604.2 M149.8 597.2 L162.2 597.2 M150.4 614.0 L156 604.2 L161.6 614.0"/></g><g stroke="#3b342c" stroke-width="1.6" fill="none" opacity="0.22" stroke-linecap="round"><circle cx="204" cy="589.6" r="3.6"/><path d="M204 593.3 L204 604.2 M197.8 597.2 L210.2 597.2 M198.4 614.0 L204 604.2 L209.6 614.0"/></g><g stroke="#3b342c" stroke-width="1.6" fill="none" opacity="0.22" stroke-linecap="round"><circle cx="252" cy="589.6" r="3.6"/><path d="M252 593.3 L252 604.2 M245.8 597.2 L258.2 597.2 M246.4 614.0 L252 604.2 L257.6 614.0"/></g><g stroke="#3b342c" stroke-width="1.6" fill="none" opacity="0.22" stroke-linecap="round"><circle cx="300" cy="589.6" r="3.6"/><path d="M300 593.3 L300 604.2 M293.8 597.2 L306.2 597.2 M294.4 614.0 L300 604.2 L305.6 614.0"/></g><g stroke="#3b342c" stroke-width="1.6" fill="none" opacity="0.22" stroke-linecap="round"><circle cx="348" cy="589.6" r="3.6"/><path d="M348 593.3 L348 604.2 M341.8 597.2 L354.2 597.2 M342.4 614.0 L348 604.2 L353.6 614.0"/></g><g stroke="#3b342c" stroke-width="1.6" fill="none" opacity="0.22" stroke-linecap="round"><circle cx="396" cy="589.6" r="3.6"/><path d="M396 593.3 L396 604.2 M389.8 597.2 L402.2 597.2 M390.4 614.0 L396 604.2 L401.6 614.0"/></g><g stroke="#3b342c" stroke-width="1.6" fill="none" opacity="0.22" stroke-linecap="round"><circle cx="444" cy="589.6" r="3.6"/><path d="M444 593.3 L444 604.2 M437.8 597.2 L450.2 597.2 M438.4 614.0 L444 604.2 L449.6 614.0"/></g><g stroke="#3b342c" stroke-width="1.6" fill="none" opacity="0.22" stroke-linecap="round"><circle cx="492" cy="589.6" r="3.6"/><path d="M492 593.3 L492 604.2 M485.8 597.2 L498.2 597.2 M486.4 614.0 L492 604.2 L497.6 614.0"/></g><g stroke="#3b342c" stroke-width="1.6" fill="none" opacity="0.22" stroke-linecap="round"><circle cx="540" cy="589.6" r="3.6"/><path d="M540 593.3 L540 604.2 M533.8 597.2 L546.2 597.2 M534.4 614.0 L540 604.2 L545.6 614.0"/></g><g stroke="#3b342c" stroke-width="1.6" fill="none" opacity="0.22" stroke-linecap="round"><circle cx="588" cy="589.6" r="3.6"/><path d="M588 593.3 L588 604.2 M581.8 597.2 L594.2 597.2 M582.4 614.0 L588 604.2 L593.6 614.0"/></g><g stroke="#3b342c" stroke-width="1.6" fill="none" opacity="0.22" stroke-linecap="round"><circle cx="636" cy="589.6" r="3.6"/><path d="M636 593.3 L636 604.2 M629.8 597.2 L642.2 597.2 M630.4 614.0 L636 604.2 L641.6 614.0"/></g><g stroke="#3b342c" stroke-width="1.6" fill="none" opacity="0.22" stroke-linecap="round"><circle cx="684" cy="589.6" r="3.6"/><path d="M684 593.3 L684 604.2 M677.8 597.2 L690.2 597.2 M678.4 614.0 L684 604.2 L689.6 614.0"/></g><g stroke="#3b342c" stroke-width="1.6" fill="none" opacity="0.22" stroke-linecap="round"><circle cx="60" cy="621.6" r="3.6"/><path d="M60 625.3 L60 636.2 M53.8 629.2 L66.2 629.2 M54.4 646.0 L60 636.2 L65.6 646.0"/></g><g stroke="#3b342c" stroke-width="1.6" fill="none" opacity="0.22" stroke-linecap="round"><circle cx="108" cy="621.6" r="3.6"/><path d="M108 625.3 L108 636.2 M101.8 629.2 L114.2 629.2 M102.4 646.0 L108 636.2 L113.6 646.0"/></g><g stroke="#3b342c" stroke-width="1.6" fill="none" opacity="0.22" stroke-linecap="round"><circle cx="156" cy="621.6" r="3.6"/><path d="M156 625.3 L156 636.2 M149.8 629.2 L162.2 629.2 M150.4 646.0 L156 636.2 L161.6 646.0"/></g><g stroke="#3b342c" stroke-width="1.6" fill="none" opacity="0.22" stroke-linecap="round"><circle cx="204" cy="621.6" r="3.6"/><path d="M204 625.3 L204 636.2 M197.8 629.2 L210.2 629.2 M198.4 646.0 L204 636.2 L209.6 646.0"/></g><g stroke="#3b342c" stroke-width="1.6" fill="none" opacity="0.22" stroke-linecap="round"><circle cx="252" cy="621.6" r="3.6"/><path d="M252 625.3 L252 636.2 M245.8 629.2 L258.2 629.2 M246.4 646.0 L252 636.2 L257.6 646.0"/></g><g stroke="#3b342c" stroke-width="1.6" fill="none" opacity="0.22" stroke-linecap="round"><circle cx="300" cy="621.6" r="3.6"/><path d="M300 625.3 L300 636.2 M293.8 629.2 L306.2 629.2 M294.4 646.0 L300 636.2 L305.6 646.0"/></g><g stroke="#3b342c" stroke-width="1.6" fill="none" opacity="0.22" stroke-linecap="round"><circle cx="348" cy="621.6" r="3.6"/><path d="M348 625.3 L348 636.2 M341.8 629.2 L354.2 629.2 M342.4 646.0 L348 636.2 L353.6 646.0"/></g><g stroke="#3b342c" stroke-width="1.6" fill="none" opacity="0.22" stroke-linecap="round"><circle cx="396" cy="621.6" r="3.6"/><path d="M396 625.3 L396 636.2 M389.8 629.2 L402.2 629.2 M390.4 646.0 L396 636.2 L401.6 646.0"/></g><g stroke="#3b342c" stroke-width="1.6" fill="none" opacity="0.22" stroke-linecap="round"><circle cx="444" cy="621.6" r="3.6"/><path d="M444 625.3 L444 636.2 M437.8 629.2 L450.2 629.2 M438.4 646.0 L444 636.2 L449.6 646.0"/></g><g stroke="#3b342c" stroke-width="1.6" fill="none" opacity="0.22" stroke-linecap="round"><circle cx="492" cy="621.6" r="3.6"/><path d="M492 625.3 L492 636.2 M485.8 629.2 L498.2 629.2 M486.4 646.0 L492 636.2 L497.6 646.0"/></g><g stroke="#3b342c" stroke-width="1.6" fill="none" opacity="0.22" stroke-linecap="round"><circle cx="540" cy="621.6" r="3.6"/><path d="M540 625.3 L540 636.2 M533.8 629.2 L546.2 629.2 M534.4 646.0 L540 636.2 L545.6 646.0"/></g><g stroke="#3b342c" stroke-width="1.6" fill="none" opacity="0.22" stroke-linecap="round"><circle cx="588" cy="621.6" r="3.6"/><path d="M588 625.3 L588 636.2 M581.8 629.2 L594.2 629.2 M582.4 646.0 L588 636.2 L593.6 646.0"/></g><g stroke="#3b342c" stroke-width="1.6" fill="none" opacity="0.22" stroke-linecap="round"><circle cx="636" cy="621.6" r="3.6"/><path d="M636 625.3 L636 636.2 M629.8 629.2 L642.2 629.2 M630.4 646.0 L636 636.2 L641.6 646.0"/></g><g stroke="#3b342c" stroke-width="1.6" fill="none" opacity="0.22" stroke-linecap="round"><circle cx="684" cy="621.6" r="3.6"/><path d="M684 625.3 L684 636.2 M677.8 629.2 L690.2 629.2 M678.4 646.0 L684 636.2 L689.6 646.0"/></g></g>
<text x="250.0" y="406" text-anchor="middle" font-size="17" fill="#6a6158" font-family="Inter, Helvetica, Arial, sans-serif">read five diagrams</text><text x="410.0" y="316" text-anchor="middle" font-size="17" fill="#6a6158" font-family="Inter, Helvetica, Arial, sans-serif">learn the grammar</text><text x="570.0" y="226" text-anchor="middle" font-size="17" fill="#6a6158" font-family="Inter, Helvetica, Arial, sans-serif">find your point</text><text x="720" y="136" text-anchor="middle" font-size="17" fill="#6a6158" font-family="Inter, Helvetica, Arial, sans-serif">defend it</text><text x="890.0" y="26" text-anchor="middle" font-size="14" letter-spacing="3" fill="#a0978b" font-family="Inter, Helvetica, Arial, sans-serif">THE MAP</text>
</svg>